<svg width="33" height="33" viewBox="0 0 33 33" fill="none" xmlns="http://www.w3.org/2000/svg">
<path fill-rule="evenodd" clip-rule="evenodd" d="M16.5 0C16.8647 0 17.2144 0.144866 17.4723 0.402728C17.7301 0.660591 17.875 1.01033 17.875 1.375V15.125H31.625C31.9897 15.125 32.3394 15.2699 32.5973 15.5277C32.8551 15.7856 33 16.1353 33 16.5C33 16.8647 32.8551 17.2144 32.5973 17.4723C32.3394 17.7301 31.9897 17.875 31.625 17.875H17.875V31.625C17.875 31.9897 17.7301 32.3394 17.4723 32.5973C17.2144 32.8551 16.8647 33 16.5 33C16.1353 33 15.7856 32.8551 15.5277 32.5973C15.2699 32.3394 15.125 31.9897 15.125 31.625V17.875H1.375C1.01033 17.875 0.660591 17.7301 0.402728 17.4723C0.144866 17.2144 0 16.8647 0 16.5C0 16.1353 0.144866 15.7856 0.402728 15.5277C0.660591 15.2699 1.01033 15.125 1.375 15.125H15.125V1.375C15.125 1.01033 15.2699 0.660591 15.5277 0.402728C15.7856 0.144866 16.1353 0 16.5 0Z" fill="#253276"/>
</svg>
